# xmcd
# 
# Track frame offsets:
#     150
#     20768
#     44103
#     67030
#     95331
#     117081
#     132788
#     151885
#     175251
#     195013
#     216702
#     227781
#     247838
#     270076
#     302681
# 
# Disc length: 4302
# 
# Revision: 0
# Processed by: cddbd v1.5.2PL0 Copyright (c) Steve Scherf et al.
# Submitted via: fre:ac v1.0.31
# 
DISCID=c810cc0f
DTITLE=山下達郎 - RARITIES
DYEAR=2002
DGENRE=JPop
TTITLE0=BLOW
TTITLE1=君の声に恋してる
TTITLE2=LOVE GOES ON (その瞳は女神)
TTITLE3=HAPPY HAPPY GREETING (ORIGINAL DEMO VERSION)
TTITLE4=MISTY MAUVE
TTITLE5=TO WAIT FOR LOVE
TTITLE6=好・き・好・き SWEET KISS!
TTITLE7=潮騒: LIVE VERSION
TTITLE8=モーニング・シャイン
TTITLE9=FIRST LUCK -初めての幸運(しあわせ)-
TTITLE10=I DO
TTITLE11=ヘロン (GUITAR INSTRUMENTAL)
TTITLE12=JUVENILEのテーマ ~瞳の中のRAINBOW~
TTITLE13=スプリンクラー (LONG VERSION)
TTITLE14=いつか晴れた日に (STAND ALONE VERSION)
EXTD=YEAR: 2002
EXTT0=
EXTT1=
EXTT2=
EXTT3=
EXTT4=
EXTT5=
EXTT6=
EXTT7=
EXTT8=
EXTT9=
EXTT10=
EXTT11=
EXTT12=
EXTT13=
EXTT14=
PLAYORDER=
